<?xml version="1.0" encoding="UTF-8" standalone="no"?>
<svg xmlns="http://www.w3.org/2000/svg" xmlns:xlink="http://www.w3.org/1999/xlink" contentStyleType="text/css" height="814px" preserveAspectRatio="none" style="width:330px;height:814px;background:#000000;" version="1.1" viewBox="0 0 330 814" width="330px" zoomAndPan="magnify"><defs/><g><!--class Commande--><g id="elem_Commande"><rect codeLine="1" fill="#303030" height="80.5938" id="Commande" rx="2.5" ry="2.5" style="stroke:#E7E7E7;stroke-width:0.5;" width="293" x="30.5" y="7"/><ellipse cx="131.75" cy="23" fill="#2E5233" rx="11" ry="11" style="stroke:#E7E7E7;stroke-width:1.0;"/><path d="M134.0938,18.6719 C133.1563,18.2344 132.5625,18.0938 131.6875,18.0938 C129.0625,18.0938 127.0625,20.1719 127.0625,22.8906 L127.0625,24.0156 C127.0625,26.5938 129.1719,28.4844 132.0625,28.4844 C133.2813,28.4844 134.4375,28.1875 135.1875,27.6406 C135.7656,27.2344 136.0938,26.7813 136.0938,26.3906 C136.0938,25.9375 135.7031,25.5469 135.2344,25.5469 C135.0156,25.5469 134.8125,25.625 134.625,25.8125 C134.1719,26.2969 134.1719,26.2969 133.9844,26.3906 C133.5625,26.6563 132.875,26.7813 132.1094,26.7813 C130.0625,26.7813 128.7656,25.6875 128.7656,23.9844 L128.7656,22.8906 C128.7656,21.1094 130.0156,19.7969 131.75,19.7969 C132.3281,19.7969 132.9375,19.9531 133.4063,20.2031 C133.8906,20.4844 134.0625,20.7031 134.1563,21.1094 C134.2188,21.5156 134.25,21.6406 134.3906,21.7656 C134.5313,21.9063 134.7656,22.0156 134.9844,22.0156 C135.25,22.0156 135.5156,21.875 135.6875,21.6563 C135.7969,21.5 135.8281,21.3125 135.8281,20.8906 L135.8281,19.4688 C135.8281,19.0313 135.8125,18.9063 135.7188,18.75 C135.5625,18.4844 135.2813,18.3438 134.9844,18.3438 C134.6875,18.3438 134.4844,18.4375 134.2656,18.75 L134.0938,18.6719 Z " fill="#FFFFFF"/><text fill="#FFFFFF" font-family="sans-serif" font-size="14" lengthAdjust="spacing" textLength="82" x="152.25" y="27.8467">Commande</text><line style="stroke:#E7E7E7;stroke-width:0.5;" x1="31.5" x2="322.5" y1="39" y2="39"/><line style="stroke:#E7E7E7;stroke-width:0.5;" x1="31.5" x2="322.5" y1="47" y2="47"/><ellipse cx="41.5" cy="60.6484" fill="#84BE84" rx="3" ry="3" style="stroke:#038048;stroke-width:1.0;"/><text fill="#FFFFFF" font-family="sans-serif" font-size="14" lengthAdjust="spacing" textLength="267" x="50.5" y="63.9951">ajouterArticle(Article, Quantite): void</text><ellipse cx="41.5" cy="76.9453" fill="#84BE84" rx="3" ry="3" style="stroke:#038048;stroke-width:1.0;"/><text fill="#FFFFFF" font-family="sans-serif" font-size="14" lengthAdjust="spacing" textLength="170" x="50.5" y="80.292">imprimerFacture(): void</text></g><!--class Facture--><g id="elem_Facture"><rect codeLine="6" fill="#303030" height="64.2969" id="Facture" rx="2.5" ry="2.5" style="stroke:#E7E7E7;stroke-width:0.5;" width="142" x="44" y="148"/><ellipse cx="84.2" cy="164" fill="#2E5233" rx="11" ry="11" style="stroke:#E7E7E7;stroke-width:1.0;"/><path d="M86.5438,159.6719 C85.6063,159.2344 85.0125,159.0938 84.1375,159.0938 C81.5125,159.0938 79.5125,161.1719 79.5125,163.8906 L79.5125,165.0156 C79.5125,167.5938 81.6219,169.4844 84.5125,169.4844 C85.7313,169.4844 86.8875,169.1875 87.6375,168.6406 C88.2156,168.2344 88.5438,167.7813 88.5438,167.3906 C88.5438,166.9375 88.1531,166.5469 87.6844,166.5469 C87.4656,166.5469 87.2625,166.625 87.075,166.8125 C86.6219,167.2969 86.6219,167.2969 86.4344,167.3906 C86.0125,167.6563 85.325,167.7813 84.5594,167.7813 C82.5125,167.7813 81.2156,166.6875 81.2156,164.9844 L81.2156,163.8906 C81.2156,162.1094 82.4656,160.7969 84.2,160.7969 C84.7781,160.7969 85.3875,160.9531 85.8563,161.2031 C86.3406,161.4844 86.5125,161.7031 86.6063,162.1094 C86.6688,162.5156 86.7,162.6406 86.8406,162.7656 C86.9813,162.9063 87.2156,163.0156 87.4344,163.0156 C87.7,163.0156 87.9656,162.875 88.1375,162.6563 C88.2469,162.5 88.2781,162.3125 88.2781,161.8906 L88.2781,160.4688 C88.2781,160.0313 88.2625,159.9063 88.1688,159.75 C88.0125,159.4844 87.7313,159.3438 87.4344,159.3438 C87.1375,159.3438 86.9344,159.4375 86.7156,159.75 L86.5438,159.6719 Z " fill="#FFFFFF"/><text fill="#FFFFFF" font-family="sans-serif" font-size="14" lengthAdjust="spacing" textLength="54" x="103.8" y="168.8467">Facture</text><line style="stroke:#E7E7E7;stroke-width:0.5;" x1="45" x2="185" y1="180" y2="180"/><line style="stroke:#E7E7E7;stroke-width:0.5;" x1="45" x2="185" y1="188" y2="188"/><ellipse cx="55" cy="201.6484" fill="#84BE84" rx="3" ry="3" style="stroke:#038048;stroke-width:1.0;"/><text fill="#FFFFFF" font-family="sans-serif" font-size="14" lengthAdjust="spacing" textLength="116" x="64" y="204.9951">imprimer(): void</text></g><!--class Article--><g id="elem_Article"><rect codeLine="10" fill="#303030" height="80.5938" id="Article" rx="2.5" ry="2.5" style="stroke:#E7E7E7;stroke-width:0.5;" width="117" x="118.5" y="272"/><ellipse cx="150.15" cy="288" fill="#2E5233" rx="11" ry="11" style="stroke:#E7E7E7;stroke-width:1.0;"/><path d="M152.4938,283.6719 C151.5563,283.2344 150.9625,283.0938 150.0875,283.0938 C147.4625,283.0938 145.4625,285.1719 145.4625,287.8906 L145.4625,289.0156 C145.4625,291.5938 147.5719,293.4844 150.4625,293.4844 C151.6813,293.4844 152.8375,293.1875 153.5875,292.6406 C154.1656,292.2344 154.4938,291.7813 154.4938,291.3906 C154.4938,290.9375 154.1031,290.5469 153.6344,290.5469 C153.4156,290.5469 153.2125,290.625 153.025,290.8125 C152.5719,291.2969 152.5719,291.2969 152.3844,291.3906 C151.9625,291.6563 151.275,291.7813 150.5094,291.7813 C148.4625,291.7813 147.1656,290.6875 147.1656,288.9844 L147.1656,287.8906 C147.1656,286.1094 148.4156,284.7969 150.15,284.7969 C150.7281,284.7969 151.3375,284.9531 151.8063,285.2031 C152.2906,285.4844 152.4625,285.7031 152.5563,286.1094 C152.6188,286.5156 152.65,286.6406 152.7906,286.7656 C152.9313,286.9063 153.1656,287.0156 153.3844,287.0156 C153.65,287.0156 153.9156,286.875 154.0875,286.6563 C154.1969,286.5 154.2281,286.3125 154.2281,285.8906 L154.2281,284.4688 C154.2281,284.0313 154.2125,283.9063 154.1188,283.75 C153.9625,283.4844 153.6813,283.3438 153.3844,283.3438 C153.0875,283.3438 152.8844,283.4375 152.6656,283.75 L152.4938,283.6719 Z " fill="#FFFFFF"/><text fill="#FFFFFF" font-family="sans-serif" font-size="14" lengthAdjust="spacing" textLength="48" x="167.85" y="292.8467">Article</text><line style="stroke:#E7E7E7;stroke-width:0.5;" x1="119.5" x2="234.5" y1="304" y2="304"/><rect fill="none" height="6" style="stroke:#C82930;stroke-width:1.0;" width="6" x="126.5" y="314.6484"/><text fill="#FFFFFF" font-family="sans-serif" font-size="14" lengthAdjust="spacing" textLength="83" x="138.5" y="320.9951">nom: string</text><rect fill="none" height="6" style="stroke:#C82930;stroke-width:1.0;" width="6" x="126.5" y="330.9453"/><text fill="#FFFFFF" font-family="sans-serif" font-size="14" lengthAdjust="spacing" textLength="91" x="138.5" y="337.292">import: bool</text><line style="stroke:#E7E7E7;stroke-width:0.5;" x1="119.5" x2="234.5" y1="344.5938" y2="344.5938"/></g><!--class Prix--><g id="elem_Prix"><rect codeLine="15" fill="#303030" height="113.1875" id="Prix" rx="2.5" ry="2.5" style="stroke:#E7E7E7;stroke-width:0.5;" width="192" x="7" y="413"/><ellipse cx="85.25" cy="429" fill="#2E5233" rx="11" ry="11" style="stroke:#E7E7E7;stroke-width:1.0;"/><path d="M87.5938,424.6719 C86.6563,424.2344 86.0625,424.0938 85.1875,424.0938 C82.5625,424.0938 80.5625,426.1719 80.5625,428.8906 L80.5625,430.0156 C80.5625,432.5938 82.6719,434.4844 85.5625,434.4844 C86.7813,434.4844 87.9375,434.1875 88.6875,433.6406 C89.2656,433.2344 89.5938,432.7813 89.5938,432.3906 C89.5938,431.9375 89.2031,431.5469 88.7344,431.5469 C88.5156,431.5469 88.3125,431.625 88.125,431.8125 C87.6719,432.2969 87.6719,432.2969 87.4844,432.3906 C87.0625,432.6563 86.375,432.7813 85.6094,432.7813 C83.5625,432.7813 82.2656,431.6875 82.2656,429.9844 L82.2656,428.8906 C82.2656,427.1094 83.5156,425.7969 85.25,425.7969 C85.8281,425.7969 86.4375,425.9531 86.9063,426.2031 C87.3906,426.4844 87.5625,426.7031 87.6563,427.1094 C87.7188,427.5156 87.75,427.6406 87.8906,427.7656 C88.0313,427.9063 88.2656,428.0156 88.4844,428.0156 C88.75,428.0156 89.0156,427.875 89.1875,427.6563 C89.2969,427.5 89.3281,427.3125 89.3281,426.8906 L89.3281,425.4688 C89.3281,425.0313 89.3125,424.9063 89.2188,424.75 C89.0625,424.4844 88.7813,424.3438 88.4844,424.3438 C88.1875,424.3438 87.9844,424.4375 87.7656,424.75 L87.5938,424.6719 Z " fill="#FFFFFF"/><text fill="#FFFFFF" font-family="sans-serif" font-size="14" lengthAdjust="spacing" textLength="27" x="105.75" y="433.8467">Prix</text><line style="stroke:#E7E7E7;stroke-width:0.5;" x1="8" x2="198" y1="445" y2="445"/><rect fill="none" height="6" style="stroke:#C82930;stroke-width:1.0;" width="6" x="15" y="455.6484"/><text fill="#FFFFFF" font-family="sans-serif" font-size="14" lengthAdjust="spacing" textLength="161" x="27" y="461.9951">horsTaxe: PrixEnCents</text><line style="stroke:#E7E7E7;stroke-width:0.5;" x1="8" x2="198" y1="469.2969" y2="469.2969"/><rect fill="#F24D5C" height="6" style="stroke:#C82930;stroke-width:1.0;" width="6" x="15" y="479.9453"/><text fill="#FFFFFF" font-family="sans-serif" font-size="14" lengthAdjust="spacing" textLength="166" x="27" y="486.292">arrondirTaxe(PEC): PEC</text><rect fill="#F24D5C" height="6" style="stroke:#C82930;stroke-width:1.0;" width="6" x="15" y="496.2422"/><text fill="#FFFFFF" font-family="sans-serif" font-size="14" lengthAdjust="spacing" textLength="144" x="27" y="502.5889">montantTaxe(): PEC</text><ellipse cx="18" cy="515.5391" fill="#84BE84" rx="3" ry="3" style="stroke:#038048;stroke-width:1.0;"/><text fill="#FFFFFF" font-family="sans-serif" font-size="14" lengthAdjust="spacing" textLength="103" x="27" y="518.8857">prixTTC(): PEC</text></g><!--class Taxe--><g id="elem_Taxe"><rect codeLine="22" fill="#303030" height="64.2969" id="Taxe" rx="2.5" ry="2.5" style="stroke:#E7E7E7;stroke-width:0.5;" width="157" x="98.5" y="743"/><ellipse cx="155.75" cy="759" fill="#2E5233" rx="11" ry="11" style="stroke:#E7E7E7;stroke-width:1.0;"/><path d="M158.0938,754.6719 C157.1563,754.2344 156.5625,754.0938 155.6875,754.0938 C153.0625,754.0938 151.0625,756.1719 151.0625,758.8906 L151.0625,760.0156 C151.0625,762.5938 153.1719,764.4844 156.0625,764.4844 C157.2813,764.4844 158.4375,764.1875 159.1875,763.6406 C159.7656,763.2344 160.0938,762.7813 160.0938,762.3906 C160.0938,761.9375 159.7031,761.5469 159.2344,761.5469 C159.0156,761.5469 158.8125,761.625 158.625,761.8125 C158.1719,762.2969 158.1719,762.2969 157.9844,762.3906 C157.5625,762.6563 156.875,762.7813 156.1094,762.7813 C154.0625,762.7813 152.7656,761.6875 152.7656,759.9844 L152.7656,758.8906 C152.7656,757.1094 154.0156,755.7969 155.75,755.7969 C156.3281,755.7969 156.9375,755.9531 157.4063,756.2031 C157.8906,756.4844 158.0625,756.7031 158.1563,757.1094 C158.2188,757.5156 158.25,757.6406 158.3906,757.7656 C158.5313,757.9063 158.7656,758.0156 158.9844,758.0156 C159.25,758.0156 159.5156,757.875 159.6875,757.6563 C159.7969,757.5 159.8281,757.3125 159.8281,756.8906 L159.8281,755.4688 C159.8281,755.0313 159.8125,754.9063 159.7188,754.75 C159.5625,754.4844 159.2813,754.3438 158.9844,754.3438 C158.6875,754.3438 158.4844,754.4375 158.2656,754.75 L158.0938,754.6719 Z " fill="#FFFFFF"/><text fill="#FFFFFF" font-family="sans-serif" font-size="14" lengthAdjust="spacing" textLength="34" x="176.25" y="763.8467">Taxe</text><line style="stroke:#E7E7E7;stroke-width:0.5;" x1="99.5" x2="254.5" y1="775" y2="775"/><rect fill="none" height="6" style="stroke:#C82930;stroke-width:1.0;" width="6" x="106.5" y="785.6484"/><text fill="#FFFFFF" font-family="sans-serif" font-size="14" lengthAdjust="spacing" textLength="131" x="118.5" y="791.9951">taux: Pourcentage</text><line style="stroke:#E7E7E7;stroke-width:0.5;" x1="99.5" x2="254.5" y1="799.2969" y2="799.2969"/></g><!--class TypeArticle--><g id="elem_TypeArticle"><rect codeLine="26" fill="#303030" height="96.8906" id="TypeArticle" rx="2.5" ry="2.5" style="stroke:#E7E7E7;stroke-width:0.5;" width="169" x="92.5" y="586"/><ellipse cx="131.35" cy="602" fill="#852D19" rx="11" ry="11" style="stroke:#E7E7E7;stroke-width:1.0;"/><path d="M130.1469,602.875 L131.6,602.875 L131.6,602.9844 C131.6,603.3906 131.6313,603.5469 131.7094,603.7031 C131.8656,603.9531 132.1469,604.1094 132.4438,604.1094 C132.6938,604.1094 132.9594,603.9688 133.1156,603.75 C133.2406,603.5938 133.2719,603.4375 133.2719,602.9844 L133.2719,601.0625 C133.2719,600.9063 133.2719,600.8594 133.2563,600.7031 C133.1938,600.2344 132.8813,599.9219 132.4281,599.9219 C132.1781,599.9219 131.9125,600.0625 131.7406,600.2813 C131.6313,600.4531 131.6,600.6094 131.6,601.0625 L131.6,601.1875 L130.1469,601.1875 L130.1469,598.7813 L134.1313,598.7813 L134.1313,599.6406 C134.1313,600.0469 134.1625,600.2188 134.2406,600.375 C134.4125,600.625 134.6938,600.7813 134.975,600.7813 C135.2406,600.7813 135.5063,600.6406 135.6781,600.4219 C135.7875,600.25 135.8188,600.1094 135.8188,599.6406 L135.8188,597.0938 L128.1938,597.0938 C127.7563,597.0938 127.6313,597.1094 127.475,597.2031 C127.225,597.3594 127.0688,597.6563 127.0688,597.9375 C127.0688,598.2188 127.2094,598.4688 127.4281,598.6406 C127.5844,598.75 127.7719,598.7813 128.1938,598.7813 L128.4438,598.7813 L128.4438,605.2969 L128.1938,605.2969 C127.7875,605.2969 127.6313,605.3125 127.475,605.4219 C127.225,605.5938 127.0688,605.8594 127.0688,606.1563 C127.0688,606.4219 127.2094,606.6719 127.4281,606.8281 C127.5688,606.9531 127.8031,607 128.1938,607 L136.1938,607 L136.1938,604.4219 C136.1938,603.9844 136.1625,603.8438 136.0844,603.6875 C135.9125,603.4375 135.6313,603.2813 135.35,603.2813 C135.0844,603.2813 134.8188,603.3906 134.6469,603.6406 C134.5375,603.7969 134.5063,603.9375 134.5063,604.4219 L134.5063,605.2969 L130.1469,605.2969 L130.1469,602.875 Z " fill="#FFFFFF"/><text fill="#FFFFFF" font-family="sans-serif" font-size="14" lengthAdjust="spacing" textLength="84" x="150.65" y="606.8467">TypeArticle</text><line style="stroke:#E7E7E7;stroke-width:0.5;" x1="93.5" x2="260.5" y1="618" y2="618"/><text fill="#FFFFFF" font-family="sans-serif" font-size="14" lengthAdjust="spacing" textLength="157" x="98.5" y="634.9951">PREMIERE_NECESSITE</text><text fill="#FFFFFF" font-family="sans-serif" font-size="14" lengthAdjust="spacing" textLength="41" x="98.5" y="651.292">LIVRE</text><text fill="#FFFFFF" font-family="sans-serif" font-size="14" lengthAdjust="spacing" textLength="47" x="98.5" y="667.5889">AUTRE</text><line style="stroke:#E7E7E7;stroke-width:0.5;" x1="93.5" x2="260.5" y1="674.8906" y2="674.8906"/></g><!--link Commande to Facture--><g id="link_Commande_Facture"><path codeLine="32" d="M158.23,88.008 C152.028,101.062 145.049,115.752 138.537,129.459 " fill="none" id="Commande-to-Facture" style="stroke:#E7E7E7;stroke-width:1.0;stroke-dasharray:7.0,7.0;"/><polygon fill="none" points="144.677,132.847,129.772,147.908,132.032,126.839,144.677,132.847" style="stroke:#E7E7E7;stroke-width:1.0;"/></g><!--link Commande to Article--><g id="link_Commande_Article"><path codeLine="33" d="M190.361,88.188 C195.754,106.215 201.328,127.951 204,148 C207.758,176.195 207.758,183.805 204,212 C202.247,225.157 199.243,239.04 195.862,252.126 " fill="none" id="Commande-to-Article" style="stroke:#E7E7E7;stroke-width:1.0;stroke-dasharray:7.0,7.0;"/><polygon fill="none" points="202.485,254.434,190.361,271.812,189.002,250.666,202.485,254.434" style="stroke:#E7E7E7;stroke-width:1.0;"/></g><!--link Facture to Article--><g id="link_Facture_Article"><path codeLine="34" d="M129.851,212.258 C135.729,224.631 142.683,239.268 149.418,253.445 " fill="none" id="Facture-to-Article" style="stroke:#E7E7E7;stroke-width:1.0;stroke-dasharray:7.0,7.0;"/><polygon fill="none" points="155.779,250.521,158.039,271.589,143.133,256.528,155.779,250.521" style="stroke:#E7E7E7;stroke-width:1.0;"/></g><!--link Article to Prix--><g id="link_Article_Prix"><path codeLine="35" d="M158.135,353.014 C152.023,365.816 145.034,380.456 138.132,394.913 " fill="none" id="Article-to-Prix" style="stroke:#E7E7E7;stroke-width:1.0;"/><polygon fill="none" points="144.442,397.944,129.508,412.977,131.808,391.912,144.442,397.944" style="stroke:#E7E7E7;stroke-width:1.0;"/></g><!--link Article to TypeArticle--><g id="link_Article_TypeArticle"><path codeLine="36" d="M196.971,353.097 C204.888,370.924 213.039,392.528 217,413 C226.54,462.308 225.898,476.572 217,526 C214.558,539.563 210.514,553.648 205.912,566.983 " fill="none" id="Article-to-TypeArticle" style="stroke:#E7E7E7;stroke-width:1.0;"/><polygon fill="none" points="212.431,569.535,198.891,585.834,199.311,564.649,212.431,569.535" style="stroke:#E7E7E7;stroke-width:1.0;"/></g><!--link Prix to TypeArticle--><g id="link_Prix_TypeArticle"><path codeLine="37" d="M128.26,526.139 C134.333,539.518 140.878,553.934 147.139,567.725 " fill="none" id="Prix-to-TypeArticle" style="stroke:#E7E7E7;stroke-width:1.0;"/><polygon fill="none" points="153.536,564.883,155.43,585.988,140.789,570.671,153.536,564.883" style="stroke:#E7E7E7;stroke-width:1.0;"/></g><!--link TypeArticle to Taxe--><g id="link_TypeArticle_Taxe"><path codeLine="38" d="M177,683.164 C177,695.796 177,709.493 177,722.3274 " fill="none" id="TypeArticle-to-Taxe" style="stroke:#E7E7E7;stroke-width:1.0;"/><polygon fill="none" points="184,722.7722,177,742.7722,170,722.7722,184,722.7722" style="stroke:#E7E7E7;stroke-width:1.0;"/></g><!--SRC=[PP31JiGW48RlF0N7chNx03sOR0WcJTJKBders99TJ87D54oD-kuE2DhLIoVz_u_vPuPDSfufSyP8EohwJkX6lhZW5Up0ws5ILQwNz3v8wxLN5mrzTNf4KfiJQAFWMWu-WAgoGyad8ImrpaxgM-Y2_L8v8bArTQQXimTj3_Y7RnpuXZuxDqL-I7m7UadmqS4ivAAQ977BbFKpwXB0sL53zAgECqp4Bnh6MOzR9Bs86nnh4O8LuIScKYd6ox2Wvm8C620FAZBA1aF5sqcjfkzwVjlodZ_TSSRt-rPmGc_QnnxBxa5WYIkNMs-t7rVbG7_Kt9AKyvs99Q-kKOnxdokhaKWwr3zrFVItYOj-0G00]--></g></svg>